<svg id="Layer_1" data-name="Layer 1" xmlns="http://www.w3.org/2000/svg" xmlns:xlink="http://www.w3.org/1999/xlink" viewBox="0 0 11.68 15.35"><defs><style>.cls-1{fill:url(#linear-gradient);}</style><linearGradient id="linear-gradient" x1="0.66" y1="14.17" x2="13.1" y2="1.72" gradientUnits="userSpaceOnUse"><stop offset="0" stop-color="#fff"/><stop offset="0" stop-color="#ececec"/><stop offset="0" stop-color="#c8c8c8"/><stop offset="0" stop-color="#a8a8a8"/><stop offset="0" stop-color="#8c8c8c"/><stop offset="0" stop-color="#767676"/><stop offset="0" stop-color="#656565"/><stop offset="0" stop-color="#5a5a5a"/><stop offset="0" stop-color="#535353"/><stop offset="0" stop-color="#515151"/><stop offset="0" stop-color="#2ebbff"/><stop offset="0.19" stop-color="#64a9ff"/><stop offset="0.43" stop-color="#a394ff"/><stop offset="0.55" stop-color="#bc8cff"/><stop offset="0.85" stop-color="#ec9cdc"/><stop offset="1" stop-color="#ffa2ce"/><stop offset="1" stop-color="#de8db3"/><stop offset="1" stop-color="#805168"/><stop offset="1" stop-color="#3b2630"/><stop offset="1" stop-color="#100a0d"/><stop offset="1"/></linearGradient></defs><path class="cls-1" d="M7.62,15.67H2.16V.33H7.62Zm6.22-4.07a3.85,3.85,0,0,1-1.22,2.94,4.62,4.62,0,0,1-3.28,1.13H9V.35l.61,0a4.56,4.56,0,0,1,3.07,1,3.28,3.28,0,0,1,1.14,2.6c0,2.11-1.36,3.32-4.06,3.61a4.8,4.8,0,0,1,3,1.31A3.81,3.81,0,0,1,13.84,11.6Z" transform="translate(-2.16 -0.33)"/></svg>