<svg id="Layer_1" data-name="Layer 1" xmlns="http://www.w3.org/2000/svg" xmlns:xlink="http://www.w3.org/1999/xlink" viewBox="0 0 11.68 15.35"><defs><style>.cls-1{fill:url(#linear-gradient);}</style><linearGradient id="linear-gradient" x1="0.66" y1="14.17" x2="13.1" y2="1.72" gradientUnits="userSpaceOnUse"><stop offset="0" stop-color="#fff"/><stop offset="0" stop-color="#fff6f6"/><stop offset="0" stop-color="#ffc8c9"/><stop offset="0" stop-color="#ff9d9f"/><stop offset="0" stop-color="#ff777b"/><stop offset="0" stop-color="#ff575b"/><stop offset="0" stop-color="#ff3b41"/><stop offset="0" stop-color="#ff252b"/><stop offset="0" stop-color="#ff141b"/><stop offset="0" stop-color="#ff090f"/><stop offset="0" stop-color="#ff0209"/><stop offset="0" stop-color="#ff0007"/><stop offset="0.02" stop-color="#fb0f15"/><stop offset="0.15" stop-color="#e27477"/><stop offset="0.24" stop-color="#d2b3b4"/><stop offset="0.29" stop-color="#ccc"/><stop offset="0.55" stop-color="#ff6b00"/><stop offset="0.56" stop-color="#ff6e0b"/><stop offset="0.65" stop-color="#ff7e45"/><stop offset="0.73" stop-color="#ff8b76"/><stop offset="0.81" stop-color="#ff959c"/><stop offset="0.89" stop-color="#ff9cb8"/><stop offset="0.95" stop-color="#ffa0c8"/><stop offset="1" stop-color="#ffa2ce"/></linearGradient></defs><path class="cls-1" d="M7.62,15.67H2.16V.33H7.62Zm6.22-4.07a3.85,3.85,0,0,1-1.22,2.94,4.62,4.62,0,0,1-3.28,1.13H9V.35l.61,0a4.56,4.56,0,0,1,3.07,1,3.28,3.28,0,0,1,1.14,2.6c0,2.11-1.36,3.32-4.06,3.61a4.8,4.8,0,0,1,3,1.31A3.81,3.81,0,0,1,13.84,11.6Z" transform="translate(-2.16 -0.33)"/></svg>